<svg id="Layer_1" data-name="Layer 1" xmlns="http://www.w3.org/2000/svg" viewBox="0 0 200 200"><defs><style>.cls-1,.cls-6{fill:#333;}.cls-2{fill:#4d4d4d;}.cls-3{fill:none;stroke-miterlimit:10;stroke-width:1.2px;}.cls-3,.cls-6{stroke:#666;}.cls-4{fill:#e6e6e6;}.cls-5,.cls-7,.cls-8,.cls-9{fill:#666;}.cls-6,.cls-7,.cls-8,.cls-9{stroke-linecap:round;stroke-linejoin:round;}.cls-6{stroke-width:0.89px;}.cls-7,.cls-8,.cls-9{stroke:#333;}.cls-7{stroke-width:0.55px;}.cls-8{stroke-width:0.44px;}.cls-9{stroke-width:0.36px;}.cls-10{fill:#ff931e;}.cls-11{fill:#ff0;opacity:0.53;}.cls-12{fill:#f2f2f2;opacity:0.74;}.cls-13{fill:#e17a78;}</style></defs><path class="cls-1" d="M92.43,73.46,57.89,76.72S66.67,63,76.8,61.92c2.73-.29,4.92-1.81,7.16-2,5.74-.48,8.47-6.58,8.47-6.58Z"/><ellipse class="cls-2" cx="88.28" cy="69.12" rx="0.69" ry="6.22"/><ellipse class="cls-2" cx="83.27" cy="68.43" rx="0.69" ry="7.6"/><ellipse class="cls-2" cx="78.27" cy="69.81" rx="0.69" ry="6.22"/><ellipse class="cls-2" cx="73.26" cy="71.89" rx="0.69" ry="4.83"/><ellipse class="cls-2" cx="68.25" cy="74.65" rx="0.69" ry="3.45"/><ellipse class="cls-2" cx="64.11" cy="76.72" rx="0.69" ry="3.45"/><path class="cls-1" d="M55.94,76.37s-21.61-3.54-24-7.08-12-13-12-13,8.41,10.62,7.21,11.8-8.41,0-9.61,0,13.21,9.44,13.21,10.62-2.4,2.36-6,10.63,0,30.68,2.41,30.68,3.6-7.08,8.4-13,9.6-17.7,19.21-15.34Z"/><path class="cls-3" d="M156.76,77.43s4.83-37.06-27.58-37.06S96.76,66.64,98,74.52"/><path class="cls-4" d="M133.73,78.45s11.05-1.75,15.86,5.9,6,10.2,6,10.2a48.45,48.45,0,0,0-10.81-10.2c-4.24-2.7-12-2.55-12-2.55"/><path class="cls-4" d="M129.48,84.9s5.7.73,9.3,4.55A90.47,90.47,0,0,1,146,98.37l-.77-4.89a25.6,25.6,0,0,0-1.3-5.53c-1.07-2.25-2.9-5.36-5.14-6.15a30,30,0,0,0-8.4-1.27"/><path class="cls-4" d="M166.89,114.28s1.91-9.53-2.9-15.91L159.19,92s3.6,7.65,1.2,14-5.79,8.26-5.79,8.26"/><path class="cls-4" d="M156.79,114.94s.85-10,0-12.74a29.59,29.59,0,0,0-4.11-7.65,10.59,10.59,0,0,1,.64,7.61C152,106,147.54,114,147.54,114"/><path class="cls-4" d="M131.89,114s3.29-4.15,3.29-8l1.2,8.92"/><path class="cls-4" d="M136.38,114s4.8-9.25,4.8-11.8-.33,12.14,1,11.8c0,0,1.36-.33,2.56-2.88s1.75-9.06,1.75-9.06c1.74,3.68,1.86,12.88,1.86,12.88"/><path class="cls-4" d="M136.38,89.45a23.53,23.53,0,0,1,2.4,8.92s-2.4-5.1-6-6.37a18,18,0,0,0-4.8-1.27l2.71-7.07h0A13.87,13.87,0,0,1,136.38,89.45Z"/><path class="cls-4" d="M125.93,95.19a7.08,7.08,0,0,1,4.45,8.28s-2.4-3.82-6-3.82S125.93,95.19,125.93,95.19Z"/><path class="cls-4" d="M123.17,95.82S134,97.1,134,102.2c0,0,1.2-6.38-2.4-10.2a17,17,0,0,0-4.8-3.82l-3.61,6.37"/><path class="cls-4" d="M124.37,112.4s6.34-1.26,6.17-5.1c0,0,2.24,5.1,1,7.64"/><path class="cls-5" d="M55.94,76.7s36-5.1,48-2.55l24,5.1s3.6-3.82,6-3.82-10.81,26.77-9.61,31.87,0,5.1,2.41,6.37S176,112.4,176,116.22s-6,3.82-6,3.82-7.21,21.67-25.22,24.22-37.35-.84-49.35-8.49S68,100.92,61.94,95.82,54.74,92,54.74,92Z"/><ellipse class="cls-1" cx="111.27" cy="89.95" rx="5.86" ry="5.79" transform="translate(16.95 197.54) rotate(-87.71)"/><path class="cls-6" d="M90.3,96.62S86.9,95,85.49,92.85s-2.21-3-2.21-3-1.46,6.6,1,8.07l2.51,1.46s-2.7-.63-3.48,2.73.12,3.56.12,3.56a5.2,5.2,0,0,1,2.58-2.94c2.18-1.26,3-.73,3-.73s-1,.38-1.3,5.59l-.26,5.2s1.29-2,2.38-2.35,4.69.46,5.08-1.22"/><path class="cls-7" d="M115.17,135.79c-2.35-.52-3.41-5.26-2.37-10.6s3.8-9.25,6.15-8.73"/><path class="cls-8" d="M119.77,135.54c-1.93-.2-3.16-3.9-2.75-8.27s2.29-7.74,4.21-7.54"/><path class="cls-9" d="M124.62,134.49c-1.55-.16-2.54-3.14-2.21-6.66s1.84-6.23,3.39-6.07"/><path class="cls-1" d="M156.69,126a36.36,36.36,0,0,0-8.66.1,33.53,33.53,0,0,0-3.83.72c-.92.24-1.93.66-2.11,1.72a1.56,1.56,0,0,0,1.42,1.74,6.38,6.38,0,0,0,1.63-.09,10.49,10.49,0,0,1,1.94,0,10,10,0,0,1,4,1.21c.6.34,1.35.92.92,1.7s-1.38.77-2.14.79a.36.36,0,0,0,0,.71,3,3,0,0,0,2.75-1.14,1.75,1.75,0,0,0-.6-2.3,10,10,0,0,0-6.63-1.69,4.9,4.9,0,0,1-2,.08.83.83,0,0,1-.34-1.41,2,2,0,0,1,.93-.5,23.08,23.08,0,0,1,3.87-.78,35.26,35.26,0,0,1,8.83-.13c.45,0,.45-.66,0-.71Z"/><path class="cls-10" d="M153.53,77.89c0-2.55,3.92-6.46,3.69-6.46s3.23,3.91,3.23,6.46S158.9,82.5,157,82.5,153.53,80.44,153.53,77.89Z"/><ellipse class="cls-11" cx="156.76" cy="78.35" rx="2.31" ry="3.23"/><ellipse class="cls-12" cx="156.76" cy="78.81" rx="1.38" ry="1.84"/><ellipse class="cls-13" cx="87.4" cy="78.47" rx="0.88" ry="3.11"/><ellipse class="cls-13" cx="78.08" cy="78.81" rx="1.32" ry="2.77"/><ellipse class="cls-13" cx="82.74" cy="78.81" rx="0.99" ry="2.77"/><ellipse class="cls-13" cx="73.43" cy="79.04" rx="1.32" ry="2.31"/><ellipse class="cls-13" cx="68.77" cy="79.27" rx="1.32" ry="1.84"/><ellipse class="cls-13" cx="64.11" cy="79.61" rx="1.09" ry="1.26"/><ellipse class="cls-13" cx="59.45" cy="80.64" rx="0.87" ry="0.91"/><rect class="cls-1" x="154.45" y="71.43" width="4.61" height="1.84" rx="0.57"/><path class="cls-1" d="M84.83,54.74a6.53,6.53,0,0,1-.69,2.64c-.31.62-2.29,3.93-2.29,3.93l3.48-1Z"/><path class="cls-1" d="M79.31,57.5a6.72,6.72,0,0,1-.7,2.65c-.31.61-2.29,3.92-2.29,3.92l3.48-1Z"/><path class="cls-2" d="M88.75,96.33l1.42,2.45a15.09,15.09,0,0,1,2,6.54l.31,4.51s7.36-.86,7.52-1.53-4.35-11.47-4.35-11.47Z"/></svg>