<svg id="Layer_1" data-name="Layer 1" xmlns="http://www.w3.org/2000/svg" viewBox="0 0 200 200"><defs><style>.cls-1{fill:#6d2f42;}.cls-2{fill:#e17a78;}.cls-3{fill:#ae4e67;}.cls-4{fill:#333;}</style></defs><path class="cls-1" d="M24.37,136q2.29-7.29,5.25-14.36l-.75,1.8a161.9,161.9,0,0,1,11.55-22.36q1.65-2.69,3.42-5.29c.51-.75,1-1.51,1.57-2.25.24-.32.48-.63.71-1-1.42,2-.3.39.05,0A30.77,30.77,0,0,1,50,88.64l.29-.25c.6-.48.4-.33-.61.46.38-.22.73-.52,1.1-.76a20.41,20.41,0,0,1,2.52-1.36l-1.79.76a16.6,16.6,0,0,1,4.09-1.15l-2,.27a17.92,17.92,0,0,1,4.57,0l-2-.27a23,23,0,0,1,5.21,1.48l-1.79-.76a30.08,30.08,0,0,1,4.91,2.7c.39.26.77.55,1.16.82.66.46-.81-.61-.71-.56a4.27,4.27,0,0,1,.63.51c.73.6,1.44,1.23,2.13,1.88a79,79,0,0,1,7.56,8.78c4.95,6.35,10.1,12.73,17.35,16.58A41,41,0,0,0,117.84,122c8.65-1.22,16-5.77,22.34-11.65,3.31-3.09,6.31-6.48,9.61-9.57.81-.77,1.64-1.52,2.5-2.24a9.25,9.25,0,0,1,1.29-1c.08,0-1.35,1-.69.53.29-.2.56-.41.84-.61a31.18,31.18,0,0,1,5.73-3.25l-1.79.76a43.29,43.29,0,0,1,7.17-2c2.28-.51,4.57-1,6.89-1.3l-2,.27a28.35,28.35,0,0,1,7.36-.2l-2-.26a10.66,10.66,0,0,1,2.62.69l-1.79-.75c.28.12.54.27.8.41a2.92,2.92,0,0,1,.37.24c-1.21-1-1.55-1.23-1-.77a2.91,2.91,0,0,1,.3.31c.46.54.21.2-.77-1,.1.26.3.51.42.77a7.57,7.57,0,0,0,4.49,3.44,7.68,7.68,0,0,0,5.78-.75c3.67-2.37,4.46-6.45,2.69-10.27-2.43-5.2-8.53-7-13.81-7.2a56.36,56.36,0,0,0-13.48,1.73c-5.14,1.11-10.05,2.54-14.5,5.47-5,3.33-9.26,7.58-13.45,11.88a87.27,87.27,0,0,1-6.92,6.54c-.46.38-1.59.94.17-.1-.36.21-.69.52-1,.76-.64.46-1.3.89-2,1.31a31.09,31.09,0,0,1-3.9,2l1.8-.76a32.87,32.87,0,0,1-8,2.16l2-.27a34.62,34.62,0,0,1-8.69,0l2,.27a33.4,33.4,0,0,1-8.37-2.28l1.79.76a31.18,31.18,0,0,1-5.14-2.8,7.86,7.86,0,0,1-1.1-.79s1.48,1.2.56.43l-.47-.39c-.83-.7-1.63-1.43-2.39-2.18a96.8,96.8,0,0,1-8-9.48,76.3,76.3,0,0,0-8.13-9.36A41,41,0,0,0,65,73.23a25.09,25.09,0,0,0-14.54-1.15c-4.82,1-9.2,4-12.65,7.4a67.1,67.1,0,0,0-8.4,11q-3.75,5.74-7,11.8A172.33,172.33,0,0,0,9.91,132a7.56,7.56,0,0,0,5.23,9.23A7.66,7.66,0,0,0,24.37,136Z"/><path class="cls-2" d="M16,140.9A199.74,199.74,0,0,1,35.29,98.08C39,92,43.26,84.62,50.07,81.63c7.47-3.27,15.57.84,21.13,5.87,6,5.39,10,12.48,15.61,18.25a33.91,33.91,0,0,0,20,10.42A33.35,33.35,0,0,0,128.33,112c7.31-4.38,12.45-11.33,18.76-16.9a32.1,32.1,0,0,1,10.33-6.51,35.06,35.06,0,0,1,8.13-1.6c6-.6,12.91-.63,18.45,2.17a13.79,13.79,0,0,1,3.44,2.42c1.38,1.35,3.5-.77,2.12-2.12-4.7-4.6-11.79-5.7-18.11-5.75s-13,.68-18.57,3.63c-7.65,4-13,11-19.22,16.78a36,36,0,0,1-10.38,7.09A30.75,30.75,0,0,1,91,105.6c-6.1-5.57-10.25-12.84-16-18.69-5.48-5.54-13.22-10.34-21.33-9.3S40.05,85.3,35.78,91.69a166.92,166.92,0,0,0-11.51,20.62A225.53,225.53,0,0,0,14.75,135c-.6,1.69-1.16,3.38-1.7,5.08-.58,1.85,2.32,2.64,2.9.8Z"/><path class="cls-2" d="M16,140.9A199.74,199.74,0,0,1,35.29,98.08C39,92,43.26,84.62,50.07,81.63c7.47-3.27,15.57.84,21.13,5.87,6,5.39,10,12.48,15.61,18.25a33.91,33.91,0,0,0,20,10.42A33.35,33.35,0,0,0,128.33,112c7.31-4.38,12.45-11.33,18.76-16.9a32.1,32.1,0,0,1,10.33-6.51,35.06,35.06,0,0,1,8.13-1.6c6-.6,12.91-.63,18.45,2.17a13.79,13.79,0,0,1,3.44,2.42c1.38,1.35,3.5-.77,2.12-2.12-4.7-4.6-11.79-5.7-18.11-5.75s-13,.68-18.57,3.63c-7.65,4-13,11-19.22,16.78a36,36,0,0,1-10.38,7.09A30.75,30.75,0,0,1,91,105.6c-6.1-5.57-10.25-12.84-16-18.69-5.48-5.54-13.22-10.34-21.33-9.3S40.05,85.3,35.78,91.69a166.92,166.92,0,0,0-11.51,20.62A225.53,225.53,0,0,0,14.75,135c-.6,1.69-1.16,3.38-1.7,5.08-.58,1.85,2.32,2.64,2.9.8Z"/><path class="cls-3" d="M16.15,141.88c6.6-15.47,13-31.3,21.8-45.68,3.5-5.71,7-13,14.27-14.28,7.94-1.38,15.62,3.8,20.81,9.3,5.4,5.74,9.49,12.63,15.33,18a32.77,32.77,0,0,0,40.05,3.21c6.86-4.61,11.82-11.37,18.1-16.67a30.67,30.67,0,0,1,10.68-6.2,39.73,39.73,0,0,1,7.95-1.37c6-.53,12.74-.44,18.23,2.33A14.21,14.21,0,0,1,187,93c.69.68,1.75-.38,1.06-1.06-4.44-4.34-11.12-5.42-17.09-5.52s-12.24.46-17.58,3c-7.61,3.58-13,10.29-18.91,16A41.78,41.78,0,0,1,124.37,113a30.33,30.33,0,0,1-11,3.1,31.35,31.35,0,0,1-21.43-5.92C85.36,105.29,81,98.1,75.71,92c-4.9-5.67-11.43-10.82-19.12-11.66a14.91,14.91,0,0,0-10,2.26,25.66,25.66,0,0,0-6.74,7.66c-9,14.14-15.81,29.45-22.4,44.83q-1.29,3-2.59,6.06c-.37.88.92,1.64,1.3.76Z"/><ellipse class="cls-4" cx="181.41" cy="94.88" rx="2.86" ry="4.49" transform="translate(-4.92 179.68) rotate(-52.08)"/><ellipse class="cls-4" cx="188.41" cy="82.88" rx="2.86" ry="4.49" transform="translate(7.24 180.58) rotate(-52.08)"/></svg>