<svg width="1366" height="322" viewBox="0 0 1366 322" fill="none" xmlns="http://www.w3.org/2000/svg">
<rect width="1440" height="321" fill="#E9C28F"/>
<g clip-path="url(#clip0)">
<path opacity="0.25" d="M330 75.0254C330 142.362 592.076 197 915.27 197C1096.52 197 1258.57 179.816 1365.9 152.847V0H376.313C326.699 28.251 330 46.7161 330 75.0254Z" fill="#FADDAB"/>
<path opacity="0.25" d="M546.363 17.2419C546.363 84.5784 808.439 139.216 1131.63 139.216C1214.96 139.216 1294.28 135.605 1366 129.023V0H552.164C548.263 5.65021 546.363 11.4169 546.363 17.2419Z" fill="#EBDCCD"/>
</g>
<path d="M1268.34 170.456C1231.46 163.244 1202.83 146.29 1165.34 140.585C1129.28 135.095 1092.09 144.783 1058.98 155.601C1025.97 166.419 992.866 175.031 955.885 175.784C915.542 176.645 877.951 150.219 838.627 144.514C791.255 137.625 738.178 157.485 691.112 169.81C665.541 176.484 610.325 185.31 572.733 177.937C535.854 170.725 507.227 153.771 469.737 148.066C433.674 142.576 396.489 152.264 363.38 163.082C330.271 173.9 297.263 182.512 260.282 183.265C219.94 184.126 182.348 157.7 143.024 151.995C95.3469 145.106 37.9912 162.652 -5 177.399L-4.49063 321.478L691.112 321.209H1386.61V162.113C1349.22 169.918 1305.93 177.829 1268.34 170.456Z" fill="#0992F5"/>
<defs>
<clipPath id="clip0">
<rect width="1036" height="197" fill="white" transform="translate(330)"/>
</clipPath>
</defs>
</svg>
