<svg id="Layer_1" data-name="Layer 1" xmlns="http://www.w3.org/2000/svg" viewBox="0 0 200 200"><defs><style>.cls-1{fill:#ae4e67;}.cls-2{opacity:0.23;}.cls-3{fill:#333;}.cls-4,.cls-8{fill:#e17a78;}.cls-5{fill:#e6e6e6;opacity:0.07;}.cls-6{opacity:0.19;}.cls-7{fill:#fff;}.cls-8{opacity:0.39;}.cls-9{opacity:0.18;}</style></defs><path class="cls-1" d="M63.78,69.43s1.63,10.46,1.08,17c-1.52,18-15.68,17.2-17.32,37.44-.65,7.93,12.34,15.72,12.34,15.72s-7.09-11.16-6.21-16.51c2.31-14,12.31-11.43,21-31.58C78,84,77.38,62.28,77.38,62.28Z"/><path class="cls-1" d="M128.8,71.85s-2.79,10.21-3,16.77c-.5,18.06,13.66,18.85,13,39.14-.24,8-14,14.25-14,14.25s8.29-10.3,8-15.71c-.73-14.19-11-12.74-17.4-33.74-2.39-7.79.62-29.33.62-29.33Z"/><g class="cls-2"><path class="cls-3" d="M117.51,70.08a53.65,53.65,0,0,0,2.67,33.12,51.57,51.57,0,0,0,3.9,7.57c1.61,2.56,3.46,5,5,7.53s2.78,5,2.79,8a22.45,22.45,0,0,1-.86,5.4,8.1,8.1,0,0,1-1.49,3.14,46.51,46.51,0,0,1-5.2,5.58c-1.38,1.36.74,3.48,2.12,2.13,2.61-2.57,5.8-5.33,7.1-8.86a18.55,18.55,0,0,0,.63-11.81c-1.85-5.66-6.31-10.14-9.13-15.32a50.56,50.56,0,0,1-5.46-16.16,49.7,49.7,0,0,1,.78-19.51c.45-1.88-2.45-2.68-2.9-.8Z"/></g><path class="cls-1" d="M101,71.46S87.11,80.79,88.35,87.53c1.42,7.68,3.68,8.09,5.77,10.93,1.91,2.6,4.93,8.94-3.3,25.23-5.58,11-13.65,7.2-14.44,10.12,0,0,14.22,5,21.6-2.59,2.41-2.49,8.27-13.53,6.78-28.47C103.57,91,97.19,92,98.12,85.32s10.46-9.74,10.46-9.74"/><g class="cls-2"><path class="cls-3" d="M63.07,72a24,24,0,0,1,2.32,14.47c-.79,5.06-3.22,9.3-6.44,13.2-3.08,3.73-6.57,7.27-8.69,11.68a23.56,23.56,0,0,0-2.11,13,24.1,24.1,0,0,0,6.39,13.76c1.34,1.4,3.45-.73,2.12-2.12a21.16,21.16,0,0,1-3-24.75c2.45-4.24,6-7.66,9-11.53a27.73,27.73,0,0,0,5.7-13.29,27.15,27.15,0,0,0-2.73-16c-.87-1.72-3.46-.2-2.59,1.52Z"/></g><g class="cls-2"><path class="cls-3" d="M91.66,79.78c-3.12,1.57-3.31,5.88-2.94,8.89.51,4.25,2.77,7.45,5.11,10.93a17.07,17.07,0,0,1,2.91,6.24,14.14,14.14,0,0,1-.51,6.55A33.38,33.38,0,0,1,90,124.74a21.84,21.84,0,0,1-11.79,7.12c-1.88.42-1.09,3.31.8,2.89A24.64,24.64,0,0,0,90.12,129a30.33,30.33,0,0,0,7.23-11c1.82-4.29,3.29-8.83,2.15-13.5s-4.68-8-6.74-12.15a13,13,0,0,1-1.17-5.5c0-1.49.06-3.67,1.58-4.44,1.73-.87.21-3.45-1.51-2.59Z"/></g><path class="cls-4" d="M102.18,9.12c-31-1.74-57.87,27.23-59.41,54.76C42.54,68,44.86,71.63,49,74.75a10.9,10.9,0,0,0,14.54-1.37,13.14,13.14,0,0,1,10.55-4.21c6.27.4,10.48,1.09,13.52,6.58,0,0,3,6.28,6.47,6.58,1.43.12,2.87.22,4.31.31a11.21,11.21,0,0,0,11-7c.14-.34.29-.67.47-1,2.33-4.49,6.22-4.49,11.29-4.36,4.49.11,7.83,4.42,10.12,7.85a10.93,10.93,0,0,0,13.71,3.63c6.09-2.83,9.91-6.67,10.19-11.59C156.64,42.63,133.19,10.85,102.18,9.12Z"/><path class="cls-5" d="M112.48,53.35a8.2,8.2,0,0,0-2.3-7.29,2.08,2.08,0,0,1-.5-2.16,9.39,9.39,0,0,0,.4-1.54,8.3,8.3,0,0,0,.12-.83,2.14,2.14,0,0,1,.87-1.55,8.24,8.24,0,0,0-5.91-14.84v0a6.09,6.09,0,1,0-11.88.45,5.47,5.47,0,0,0-.55-.13A10.74,10.74,0,0,0,82.7,43a2.11,2.11,0,0,1-.29,3.08,10.74,10.74,0,0,0,7,19.25A2.13,2.13,0,0,1,91,66a9.9,9.9,0,0,0,5.56,3A10,10,0,0,0,108.21,61a8,8,0,0,0,.11-.84,2.17,2.17,0,0,1,.89-1.55A8.2,8.2,0,0,0,112.48,53.35Z"/><path class="cls-5" d="M123.81,43.3a6.28,6.28,0,0,0-1.68-5.52,1.56,1.56,0,0,1-.36-1.62,7.72,7.72,0,0,0,.3-1.17q.06-.32.09-.63a1.66,1.66,0,0,1,.65-1.18,6.35,6.35,0,0,0,2.55-4.87,6.19,6.19,0,0,0-3.82-6,5.92,5.92,0,0,0-3.05-.37v0a4.49,4.49,0,0,0-8.59-2.51,4.68,4.68,0,0,0-.2,2.89l-.4-.09a8,8,0,0,0-9.25,6.61,8.16,8.16,0,0,0,1.77,6.72,1.64,1.64,0,0,1-.23,2.34,8.25,8.25,0,0,0-3.07,5.61A8.1,8.1,0,0,0,104,52.07a7.68,7.68,0,0,0,2.74.37,1.53,1.53,0,0,1,1.2.51,7.27,7.27,0,0,0,4.1,2.29,7.51,7.51,0,0,0,8.64-6.17c0-.22.06-.43.08-.64a1.65,1.65,0,0,1,.66-1.17A6.31,6.31,0,0,0,123.81,43.3Z"/><path class="cls-5" d="M94.76,54.11a6.28,6.28,0,0,0-1.68-5.51A1.58,1.58,0,0,1,92.72,47,7.43,7.43,0,0,0,93,45.8q.06-.31.09-.63A1.59,1.59,0,0,1,93.76,44a6.34,6.34,0,0,0,2.54-4.87,6.18,6.18,0,0,0-3.81-6,5.92,5.92,0,0,0-3-.37v0a4.49,4.49,0,0,0-8.59-2.51,4.64,4.64,0,0,0-.19,2.88c-.14,0-.27-.07-.41-.09A8.05,8.05,0,0,0,71,39.65a8.22,8.22,0,0,0,1.77,6.72,1.64,1.64,0,0,1-.22,2.34,8.23,8.23,0,0,0-3.08,5.62,8.1,8.1,0,0,0,5.43,8.55,7.93,7.93,0,0,0,2.74.38,1.51,1.51,0,0,1,1.2.51,7.26,7.26,0,0,0,4.1,2.28,7.5,7.5,0,0,0,8.63-6.17c0-.21.07-.43.09-.64a1.62,1.62,0,0,1,.66-1.17A6.36,6.36,0,0,0,94.76,54.11Z"/><g class="cls-6"><path class="cls-7" d="M111.93,16.32c-5.31-1.21-6.61-1.21-12.05-.85A69.45,69.45,0,0,0,82,18.94C67.4,24.3,57.17,38,50.51,52c-1.22,2.57-3.14,5.82-3.18,8.66s.2,5.74,2.57,7.31c3.75,2.47,7.85,1,11.67-1.41s7.82-5.3,12.28-4.81c7.4.81,11.1,10.39,18.36,12,5.61,1.28,11-2.63,15.38-6.31s9.7-7.63,15.34-6.46c5,1,8.19,5.67,11.62,9.42s8.86,7.06,13.33,4.65c4.89-2.63,4.57-9.85,2.33-14.94-1.17-2.66-2.64-5.19-3.73-7.89a19.21,19.21,0,0,1-1.22-4.13,23.29,23.29,0,0,0-.4-3.67C143,39,140.35,34,136.06,30.11,135.46,29.56,118,17.7,111.93,16.32Z"/></g><path class="cls-8" d="M60.68,71.73s-9.8,36.05-9.86,59.26,1.79,25.32,1.79,25.32.76-20.06,2.26-28.78S66.48,70.44,66.48,70.44"/><path class="cls-8" d="M133.1,72.57s5.71,36.92,3.18,60-4.6,25-4.6,25,1.48-20,1-28.86-5.17-58-5.17-58"/><path class="cls-8" d="M77.46,61.14s-12,64.69-12.28,83.23c-.24,19,5.88,38.28,5.88,38.28s.22-30.81.71-41.29S87.29,64.64,87.29,64.64"/><path class="cls-8" d="M118.71,63.8s4.75,65.62,2.92,84.07c-1.88,18.91-10.12,37.39-10.12,37.39s3.22-30.64,3.91-41.11-6.87-78-6.87-78"/><g class="cls-9"><path class="cls-7" d="M160.93,43.88a15.86,15.86,0,0,1,4.41,16.43c-.59,1.85,2.31,2.64,2.9.8a18.86,18.86,0,0,0-5.19-19.35c-1.43-1.3-3.55.82-2.12,2.12Z"/></g><ellipse class="cls-3" cx="120.21" cy="49.1" rx="5.92" ry="3.78" transform="translate(64.47 166.37) rotate(-86.8)"/><ellipse class="cls-3" cx="80.05" cy="45.01" rx="5.92" ry="3.78" transform="translate(30.63 122.42) rotate(-86.8)"/></svg>