<svg id="Layer_1" data-name="Layer 1" xmlns="http://www.w3.org/2000/svg" viewBox="0 0 200 200"><defs><style>.cls-1{fill:#ae4e67;}.cls-2,.cls-3,.cls-6{fill:#333;}.cls-3,.cls-5{opacity:0.23;}.cls-4,.cls-6{opacity:0.19;}</style></defs><path class="cls-1" d="M98.21,14.46c6,.06,22.92,9.88,32.82,22s16.68,36.14,16.64,41.14S105.43,104.9,97.5,96.49,98.21,14.46,98.21,14.46Z"/><path class="cls-1" d="M96.74,14.45c-6,0-23.09,9.48-33.19,21.39S46.24,71.7,46.2,76.7,88,104.75,96,96.47,96.74,14.45,96.74,14.45Z"/><path class="cls-1" d="M155.09,121.12c-2,3-1.21,14.27-3.16,19-2.13,5.12-5.19,5.73-11.06,6.9-6.58,1.31-13-3.11-21.69-10.29s-6.69-31.47-6.69-31.47c-3.51,1.07-11.18,3.88-15.1,3.85-3.59,0-12-3.08-15.7-4.28,0,0,1.61,24.32-7.23,31.35s-15.31,11.33-21.86,9.91c-5.86-1.27-8.9-1.93-10.94-7.09-1.88-4.74-.87-16-2.84-19-1.73-2.64-10-3.08-10,.92s6-1.29,7.29,4.25c1.62,6.82-1.22,12.17,2.51,18.83,3.94,7,14.89,13.13,23.91,11.21s23.12-13.8,24.16-18.79,2,5-2.1,12-8.12,12.93-18.13,14.84-20-6.17-21-1.18,6.88,8.06,17.93,8.16,17-3.86,20.06-6.83c2.7-2.65,10.18-6.41,13.3-21.25,2.85,15,9,17.76,11.7,20.47a30.38,30.38,0,0,0,21.21,8.34c11,.1,19-2.85,18.07-7.84s-11,2.91-21,.82-13.93-8.12-17.87-15.16-2.85-17-1.9-12,14.86,17.13,23.84,19.2,20-3.82,24.09-10.79c3.85-6.6,1.11-12,2.84-18.79,1.4-5.51,7.33-.12,7.36-4.12S156.87,118.51,155.09,121.12Z"/><ellipse class="cls-2" cx="82.38" cy="112.83" rx="5.5" ry="3.5" transform="translate(-31.15 194.23) rotate(-89.5)"/><path class="cls-3" d="M82,102.72l0,5.61s11,4.09,15,4.13c3.44,0,15.42-3.6,15.42-3.6l0-4.43Z"/><g class="cls-4"><path class="cls-2" d="M98.82,17.42a25,25,0,0,1,11.92,6.94,36.19,36.19,0,0,1,6.77,10.9,114.87,114.87,0,0,1,4.31,12.82,115,115,0,0,1,3.81,18.82c.88,7.41,1.22,14.88,1.46,22.33.06,1.92,3.06,1.93,3,0-.44-13.73-1.26-27.6-5.07-40.88-2.55-8.89-5.26-18.34-11.52-25.42a28,28,0,0,0-13.88-8.4,1.5,1.5,0,0,0-.8,2.89Z"/></g><ellipse class="cls-2" cx="111.38" cy="113.08" rx="5.5" ry="3.5" transform="translate(-2.66 223.48) rotate(-89.5)"/><path class="cls-1" d="M118.75,34.39c-5.86-16-17-19.9-21-19.93S82.7,18.08,76.57,34,63.12,85.91,67,95s24.87,14.46,29.87,14.51,26.23-5,30.31-14S124.61,50.44,118.75,34.39Z"/><g class="cls-5"><path class="cls-2" d="M86.25,122.1a56.76,56.76,0,0,0-.29,5.83,34.67,34.67,0,0,1-.3,6.11,11.72,11.72,0,0,1-2.32,4.43,37.07,37.07,0,0,1-3.3,3.89c-4.81,5-11,8.79-17.84,9.94-6.42,1.09-13.83-.29-18.56-5-4.4-4.42-5.13-10.78-5.62-16.7-.14-1.71-.23-3.42-.25-5.13a8.26,8.26,0,0,0-.88-4.09c-1.61-2.81-4.8-2.44-7.34-1.26-1.75.82-.22,3.41,1.52,2.59.79-.37,2.1-.93,2.9-.27s.78,1.86.8,2.69c.09,3.22.28,6.41.67,9.61.77,6.23,2.71,12.26,7.87,16.24,5.59,4.32,13,5.43,19.89,4.22s13.26-5.07,18.23-9.95c2.67-2.61,5.61-5.84,6.86-9.41.72-2.09.62-4.52.65-6.7,0-2.34,0-4.67.31-7,.22-1.91-2.79-1.9-3,0Z"/></g><g class="cls-5"><path class="cls-2" d="M94.94,142a29.79,29.79,0,0,1-12.17,19.4c-7,5-15.65,7.28-24.18,7.31a12.12,12.12,0,0,1-7-1.6,8.71,8.71,0,0,1-3.52-4.94,1.5,1.5,0,0,0-2.9.79,11.78,11.78,0,0,0,8.89,8.37c4.76,1,10.14.28,14.85-.73C78,168.7,86.38,164,92,156.48a30.64,30.64,0,0,0,5.84-13.66c.28-1.88-2.61-2.7-2.89-.79Z"/></g><g class="cls-5"><path class="cls-2" d="M103.93,122.55A22.24,22.24,0,0,0,104,133a34.62,34.62,0,0,0,1.4,4.21,20,20,0,0,0,2.68,4.24,39.14,39.14,0,0,0,17,13.09,27.35,27.35,0,0,0,21.11-.47c6.18-2.91,9.85-8.58,11.14-15.15A76.92,76.92,0,0,0,158.56,128c.07-1.28-.18-3.07.69-4.15s2.21-.37,3.14.08c1.72.85,3.25-1.74,1.51-2.59-2.34-1.14-5.27-1.65-7,.71-1.62,2.17-1.21,5.19-1.41,7.74-.48,6-1.06,12.89-5.25,17.62-4.53,5.1-12,6.7-18.51,5.76-7-1-13.21-4.85-18.07-9.84a24.65,24.65,0,0,1-6-8.91,20,20,0,0,1-.76-11.11c.41-1.89-2.49-2.69-2.89-.8Z"/></g><g class="cls-5"><path class="cls-2" d="M96.22,142.59a32.88,32.88,0,0,0,13.55,22,40.4,40.4,0,0,0,13.08,6.17,44,44,0,0,0,14.7,1.7,12,12,0,0,0,11-8.49c.55-1.85-2.35-2.64-2.9-.8-1.17,3.91-4.6,6.11-8.56,6.32a42.54,42.54,0,0,1-13-1.51c-7.94-2.11-15.31-6.59-20-13.43a27.76,27.76,0,0,1-4.8-12,1.56,1.56,0,0,0-1.5-1.5,1.5,1.5,0,0,0-1.5,1.5Z"/></g><g class="cls-5"><path class="cls-2" d="M98.07,142.21V123.32L97,124.76l.23-.05h-.8l.23.08-.66-.38.17.17-.39-.66a4.94,4.94,0,0,1,.1,1.8l0,2.23.05,4.66.1,9.11a1.5,1.5,0,0,0,3,0l-.12-11.16L98.84,125a4.41,4.41,0,0,0-.35-2.22,2,2,0,0,0-2.31-.89,1.52,1.52,0,0,0-1.1,1.45v18.89a1.5,1.5,0,0,0,3,0Z"/></g><path class="cls-6" d="M98.71,14.12s1.2,95.36-1.8,95.34S73,105.75,67,95,73.87,34.2,80.79,25.79,92.69,13.72,98.71,14.12Z"/></svg>