<svg id="Layer_1" data-name="Layer 1" xmlns="http://www.w3.org/2000/svg" viewBox="0 0 200 200"><defs><style>.cls-1{fill:#e6e6e6;}.cls-2{fill:#666;}.cls-10,.cls-3{opacity:0.44;}.cls-10,.cls-4{fill:#333;}.cls-5{fill:#4d4d4d;}.cls-6{fill:none;stroke:#666;stroke-miterlimit:10;stroke-width:1px;}.cls-7{fill:#ff931e;}.cls-8{fill:#ff0;opacity:0.53;}.cls-9{fill:#f2f2f2;opacity:0.74;}</style></defs><path class="cls-1" d="M153.82,118.61s4.19,2.34,3.79,6.19-.66,5-.66,5a20.76,20.76,0,0,0-1-6.3c-.72-2-3.38-4-3.38-4"/><path class="cls-1" d="M150.53,120.48a7.44,7.44,0,0,1,1.94,4,39.69,39.69,0,0,1,.07,4.91l1-1.85a11,11,0,0,0,1-2.21c.23-1,.43-2.58-.11-3.44a12.91,12.91,0,0,0-2.5-2.65"/><path class="cls-1" d="M151.2,126.27a10,10,0,0,1-1.54,3.65s.53-2.36-.35-3.74a8,8,0,0,0-1.28-1.7l2.78-1.67h0A5.86,5.86,0,0,1,151.2,126.27Z"/><path class="cls-1" d="M145.35,125.3a3,3,0,0,1-.69,4,3.54,3.54,0,0,0-1-2.88C142.43,125.44,145.35,125.3,145.35,125.3Z"/><path class="cls-1" d="M144.1,125.59s3.31,3.29,2,5c0,0,2.09-1.83,1.89-4.08a7.51,7.51,0,0,0-.61-2.56l-2.9,1.2"/><path class="cls-1" d="M160.08,136.29s1.73-4.33,0-7.76l-1.71-3.43s1,3.93-.67,6.72-3.45,3.39-3.45,3.39"/><path class="cls-1" d="M155.25,135.72s1.28-4.67,1.12-6a14.2,14.2,0,0,0-1.27-4,5.12,5.12,0,0,1-.36,3.65,52.63,52.63,0,0,1-3.77,5.08"/><path class="cls-1" d="M143.58,133.09a7.57,7.57,0,0,0,2.26-3.48l-.22,4.32"/><path class="cls-1" d="M145.7,133.48s3.08-3.94,3.31-5.15-1.23,5.7-.55,5.67c0,0,.67,0,1.46-1.14a18.73,18.73,0,0,0,1.62-4.12c.5,1.89-.25,6.24-.25,6.24"/><path class="cls-1" d="M140.18,131.67s3.1,0,3.36-1.86c0,0,.61,2.6-.19,3.7"/><path class="cls-2" d="M87.81,94.2S97.4,100,100,100.42s8.73,9.94,8.73,9.94L97.58,113.2a6.94,6.94,0,0,0-.67-3.69c-.94-1.89-6.29-1.57-6.85-5.64s1.51-1,2-3.6S87.81,94.2,87.81,94.2Z"/><path class="cls-2" d="M45.89,111a32.36,32.36,0,0,0,7-14.39c1.66-8.57-3.18-17.2-3.18-17.2s-4.51,6.51-5.1,13.36S45.89,111,45.89,111Z"/><path class="cls-2" d="M39.66,95s7.2-9.38,4.63-20.86S40,60.64,40,60.64,32.67,72,33.91,79.51A64.23,64.23,0,0,0,37.3,92.17"/><g class="cls-3"><path class="cls-4" d="M97.43,111.51l9.47-1a1.27,1.27,0,0,0,1.24-1.24,1.24,1.24,0,0,0-1.24-1.23l-9.47,1a1.27,1.27,0,0,0-1.23,1.24,1.25,1.25,0,0,0,1.23,1.24Z"/></g><path class="cls-5" d="M127.6,108.21A22.15,22.15,0,0,0,118.06,121a17.32,17.32,0,0,0,3,15.11s-25-3.74-27.08-3.71c-6.62.09-20.36,2.82-32.42-3.39s-19.73-12.79-25.1-20.47-6.12-25-3.56-24.53,9.12,14.92,22.71,20.09,28.66,8.64,36.3,7.08S127.6,108.21,127.6,108.21Z"/><path class="cls-2" d="M40.72,113.8a32.37,32.37,0,0,1-14.86-6c-7-5.26-9.13-14.92-9.13-14.92s7.7,1.83,12.72,6.53S40.72,113.8,40.72,113.8Z"/><path class="cls-2" d="M32.28,97S21.36,92.42,17.87,81.19s-3-13.78-3-13.78,12.07,6.21,14.72,13.31a64.61,64.61,0,0,1,3.37,12.66"/><path class="cls-6" d="M179,114.33s6.31-19-20.11-23.93S125.54,108,125.33,114.57"/><path class="cls-7" d="M176.32,114.21c.38-2.07,4.17-4.66,4-4.7s2,3.68,1.65,5.75-2,3.53-3.51,3.24S175.93,116.29,176.32,114.21Z"/><ellipse class="cls-8" cx="178.88" cy="115.08" rx="2.68" ry="1.91" transform="translate(33.04 269.91) rotate(-79.47)"/><ellipse class="cls-9" cx="178.81" cy="115.46" rx="1.53" ry="1.15" transform="translate(32.61 270.15) rotate(-79.47)"/><rect class="cls-4" x="177.88" y="109.43" width="3.82" height="1.53" rx="0.57" transform="translate(23.17 -31.01) rotate(10.53)"/><path class="cls-10" d="M115.56,124s-28.15,3.65-38.2-.42-35.13-11.38-38.81-20A104.75,104.75,0,0,1,32.93,84a31.73,31.73,0,0,0,1.87,21.49c5.2,11.56,20.4,22.32,36,26.68,12.07,3.36,21.11-.42,28.66.45s21.61,3.48,21.61,3.48l-3.6-11.76Z"/><path class="cls-2" d="M127.6,108.21s9.41-3.15,13.13-.67,5.33,8.07,7.89,8.54,13.33,2.48,12.82,3.71a3.46,3.46,0,0,0-.36,1.93s-8.78,3-11.57,3.78-.24,1.28-4.31,1.85-2.6-.49-2.6-.49-.79,5.1,2.23,6.35,12.89.57,12.9-.82V131c.28-.21,3.64,1.76,3.36,3.27-.71,3.83-.3,2.62-3.54,5.31s-10.34,5.33-20.33,2.15-16.14-5.64-16.14-5.64-6.47-6.32-4.31-15.35C119.22,110.61,127.6,108.21,127.6,108.21Z"/><path class="cls-2" d="M79,141.49s11.58,2.15,17.17.55,8.76-11.6,8.76-11.6S96.78,125,92.2,128.07s-7,9.27-8.56,10.31S79,141.49,79,141.49Z"/><ellipse class="cls-4" cx="133.89" cy="118.88" rx="4.46" ry="4.41" transform="translate(-11.73 223.06) rotate(-77.18)"/><path class="cls-4" d="M130.46,116.46a6.53,6.53,0,0,1,4.94-2.64,7.63,7.63,0,0,1,2.81.53,8.57,8.57,0,0,1,2.48,1.4,6.52,6.52,0,0,1,2.33,5.17A6.93,6.93,0,0,1,140.6,126l0,0a8.42,8.42,0,0,0,1.71-5,7,7,0,0,0-1.84-4.87,5.32,5.32,0,0,0-2.28-1.47,6.34,6.34,0,0,0-2.7-.16,9.43,9.43,0,0,0-4.93,2.1Z"/><path class="cls-4" d="M139,122.36a4.7,4.7,0,0,1-3.47,2,6.14,6.14,0,0,1-3.86-1.25,4.65,4.65,0,0,1-1.81-3.64,4.94,4.94,0,0,1,1.6-3.72l0,0a6.19,6.19,0,0,0-1.11,3.67,5.13,5.13,0,0,0,1.47,3.45,3.69,3.69,0,0,0,1.68,1,4.54,4.54,0,0,0,1.94,0,6.75,6.75,0,0,0,3.48-1.65Z"/><path class="cls-4" d="M139.38,129.62a1.93,1.93,0,0,1-.44,1.6,3.32,3.32,0,0,1-1.35,1,7.53,7.53,0,0,1-1.59.39c-.53.1-1.06.2-1.6.27a6.4,6.4,0,0,1-3.26-.39,4,4,0,0,1-1.38-1,2,2,0,0,1-.54-1.58h.06a3.14,3.14,0,0,0,2.11,2,10.24,10.24,0,0,0,3,.67,4.83,4.83,0,0,0,1.56-.13,5.25,5.25,0,0,0,1.42-.66,3.45,3.45,0,0,0,1.95-2.14Z"/><g class="cls-3"><path class="cls-4" d="M14.13,68.93c1.66,5.54,3,11.43,5.58,16.61,2.52,5,6.8,8.58,11.05,12,1.23,1,3-.74,1.75-1.75-4.09-3.32-8.24-6.74-10.66-11.53a46.58,46.58,0,0,1-2.79-7.53l-2.55-8.48c-.46-1.52-2.85-.88-2.38.65Z"/></g><g class="cls-3"><path class="cls-4" d="M15.12,93.75a37.54,37.54,0,0,0,9.39,13.61c4.1,3.75,9.55,7.59,15.38,6.72,1.56-.23.9-2.61-.66-2.38-2.75.41-5.44-.78-7.74-2.17a33,33,0,0,1-5.77-4.42,34.77,34.77,0,0,1-8.22-12c-.59-1.45-3-.82-2.38.66Z"/></g><g class="cls-3"><path class="cls-4" d="M38.08,60.82a39.55,39.55,0,0,0-3.42,25.09c.3,1.56,2.69.9,2.39-.66a36.75,36.75,0,0,1,3.16-23.18c.71-1.42-1.43-2.67-2.13-1.25Z"/></g><g class="cls-3"><path class="cls-4" d="M48.35,80.15A62.32,62.32,0,0,0,44.42,98c-.12,1.59,2.36,1.58,2.47,0a60.58,60.58,0,0,1,3.84-17.16c.57-1.49-1.82-2.13-2.38-.66Z"/></g><g class="cls-3"><path class="cls-4" d="M104.44,129.58c-3.31-1.46-6.77-2.89-10.46-2.38a8,8,0,0,0-6.8,5.54,1.24,1.24,0,0,0,2.38.66,5.65,5.65,0,0,1,5.26-3.82c3-.21,5.73,1,8.37,2.14a1.28,1.28,0,0,0,1.69-.45,1.25,1.25,0,0,0-.44-1.69Z"/></g></svg>