<svg id="Layer_1" data-name="Layer 1" xmlns="http://www.w3.org/2000/svg" viewBox="0 0 200 200"><defs><style>.cls-1{fill:#666;}.cls-2{fill:#b3b3b3;}.cls-3,.cls-4{fill:#333;}.cls-3{opacity:0.39;}.cls-5{fill:#999;}</style></defs><path class="cls-1" d="M20.77,40.25s-4.1,29.89,18.88,41.24,83.24,4.72,100.57,3.85,26.15.71,34.91,6.83c4.78,3.35,11.78,21.88,11.55,41.52-.22,18.18.53,28.43-15.66,31.1s-58.82-.78-85.63-9.95S31.82,117.09,18,92.37s-4.17-52.64-4.17-52.64A10.67,10.67,0,0,1,3,32.52C-.15,24.38,4,18.14,5.79,16.64S4.48,29.54,10.1,32.07s6.61,3,14.49,1.36c8.53-1.76,11.07-11.68,11.07-11.68a54,54,0,0,1-1,11.88C33.83,38.05,20.77,40.25,20.77,40.25Z"/><path class="cls-2" d="M82.74,137.85A28,28,0,0,1,112.36,125c10.71,1.91,73.79,11.69,76.31,6.07s3.6,23.7-10.2,31.56c-10.14,5.77-67.47,3.27-87.93-5s-53.77-27-69.76-55.07C15,92.34,14.85,84.73,14.85,84.73S15.16,100,53.17,125C65,132.72,81,139.06,82.74,137.85Z"/><path class="cls-3" d="M14.71,84.1S26.33,124.66,62,141.41l6.16-8.17S15.78,103.37,14.71,84.1Z"/><ellipse class="cls-4" cx="155.77" cy="119.7" rx="5.87" ry="3.73" transform="translate(10.49 251.94) rotate(-79.85)"/><path class="cls-5" d="M132.62,128.62c-.29,3.52-2.62,6.82-5.25,9-3.13,2.62-7,3.06-11,3a136.34,136.34,0,0,1-20.94-2.21c-3.77-.65-7.53-1.4-11.23-2.38a.75.75,0,0,0-.4,1.45,152.71,152.71,0,0,0,22.47,3.95,99.07,99.07,0,0,0,11.16.7c3.87,0,7.6-.72,10.68-3.21s5.65-6.29,6-10.34c.08-1-1.42-1-1.5,0Z"/><path class="cls-5" d="M153.33,130.85c-.25,2.21-1.6,4.33-2.82,6.12a29.43,29.43,0,0,1-5,5.71c-3.22,2.79-7.62,3.52-11.7,4.25a66.49,66.49,0,0,1-12.18,1.33,103.24,103.24,0,0,1-16.43-1.8c-6.26-1.06-12.46-2.38-18.66-3.74-1-.21-1.43,1.32-.43,1.54,5.81,1.27,11.62,2.51,17.47,3.53A117.15,117.15,0,0,0,121,149.85a67.58,67.58,0,0,0,12.92-1.32c4.13-.73,8.66-1.48,12-4.14a29.57,29.57,0,0,0,6-6.61,16,16,0,0,0,3.05-6.93c.11-1-1.48-1-1.6,0Z"/><path class="cls-5" d="M177,132.54c-.23,2.64-.48,4.73-2.09,7a32.2,32.2,0,0,1-5.57,5.68,62.09,62.09,0,0,1-9.77,7.17c-6.87,3.78-15.22,4.9-22.93,5.27a100.54,100.54,0,0,1-25.07-2.17c-9-1.87-17.94-4.31-26.95-6.29-1-.22-1.43,1.32-.43,1.54,16.76,3.67,33.24,9,50.59,8.58,8.07-.22,16.57-1.27,24-4.73,3.69-1.72,6.95-4.37,10.11-6.9a42.91,42.91,0,0,0,6.64-6.28,13.14,13.14,0,0,0,2.67-4.87,25.13,25.13,0,0,0,.45-4c.09-1-1.51-1-1.6,0Z"/><path class="cls-1" d="M67.35,130.55c9.35-1.36,21.31,4.75,21.27,8.36-.11,9.08-8.68,21-16.27,22s-33.79-5.16-35-6.9,14.82-6.45,20.28-11.54S62,131.32,67.35,130.55Z"/><path class="cls-5" d="M184.88,132.55c-1.27,8-2.82,16.18-9.14,21.79-5,4.45-11.7,6.78-18.09,8.44-3.22.83-6.89,1.76-10.23,1.14-1-.18-1.43,1.36-.42,1.54a23,23,0,0,0,9-.66,70.6,70.6,0,0,0,10-3c7.26-2.79,13.7-7.34,16.88-14.65,2-4.49,2.77-9.34,3.54-14.15.16-1-1.38-1.43-1.54-.42Z"/><path class="cls-4" d="M185.49,130.61c-8.18,1.48-16.31.71-24.47-.38-8.56-1.15-17.17-1.81-25.74-2.84-4.41-.53-8.8-1.21-13.16-2.1-3.91-.81-7.79-1.79-11.75-2.33-3.09-.42-6.62-.8-9.66.09a35.61,35.61,0,0,0-6.85,3.14,28.78,28.78,0,0,0-5.23,3.14,27,27,0,0,0-4.61,5l2.35-.3c-6.38-5.13-14.6-4.76-22.3-3.95-1.9.2-1.92,3.21,0,3,6.71-.71,14.54-1.46,20.18,3.07a1.54,1.54,0,0,0,2.36-.3c1-1.58,2.78-2.85,4.06-4.31.18-.2-.39.2,0,0s.59-.37.88-.55c.89-.54,1.79-1.06,2.69-1.57a42.94,42.94,0,0,1,6.64-3.25c2.75-1,6-.64,8.87-.26,3.89.52,7.71,1.51,11.55,2.3,4.24.87,8.51,1.53,12.8,2.07,8.39,1.05,16.82,1.63,25.19,2.75,9,1.2,17.9,2.15,27,.5,1.89-.34,1.09-3.23-.8-2.89Z"/><path class="cls-4" d="M37.35,154c-.79-1.76,13.55-6,18.76-11.5a121.66,121.66,0,0,0,8.18-10.68s8.73-2.4,10.83-.63S71.44,150.33,65,152,37.85,155.12,37.35,154Z"/></svg>