<svg id="Layer_1" data-name="Layer 1" xmlns="http://www.w3.org/2000/svg" xmlns:xlink="http://www.w3.org/1999/xlink" viewBox="0 0 200 200"><defs><style>.cls-1{fill:none;}.cls-2{clip-path:url(#clip-path);}.cls-3{fill:#fff;opacity:0.37;}.cls-4{clip-path:url(#clip-path-2);}.cls-5{fill:#e6e7e8;stroke:#f7ede4;stroke-miterlimit:10;stroke-width:1.15px;}.cls-6{fill:#484759;}.cls-7{clip-path:url(#clip-path-3);}.cls-8{clip-path:url(#clip-path-4);}</style><clipPath id="clip-path"><rect class="cls-1" x="-220" width="200" height="200" rx="29.37"/></clipPath><clipPath id="clip-path-2"><rect class="cls-1" width="200" height="200" rx="29.37"/></clipPath><clipPath id="clip-path-3"><rect class="cls-1" x="-220" y="220" width="200" height="200" rx="29.37"/></clipPath><clipPath id="clip-path-4"><rect class="cls-1" y="220" width="200" height="200" rx="29.37"/></clipPath></defs><g class="cls-2"><rect class="cls-3" x="-232.4" y="-25.19" width="319.4" height="140.87" transform="translate(12.93 45.59) rotate(32.12)"/><rect class="cls-3" x="-207" y="-58.66" width="319.4" height="140.87" transform="translate(-0.98 26.95) rotate(32.12)"/><rect class="cls-3" x="-186.38" y="-90.74" width="319.4" height="140.87" transform="translate(-14.88 11.08) rotate(32.12)"/></g><g class="cls-4"><rect class="cls-5" width="200" height="200" rx="29.37"/><rect class="cls-3" x="-12.4" y="-25.19" width="319.4" height="140.87" transform="translate(46.61 -71.4) rotate(32.12)"/><rect class="cls-3" x="13" y="-58.66" width="319.4" height="140.87" transform="translate(32.7 -90.03) rotate(32.12)"/><rect class="cls-3" x="33.62" y="-90.74" width="319.4" height="140.87" transform="translate(18.8 -105.91) rotate(32.12)"/><circle class="cls-6" cx="147.42" cy="141.14" r="19.87"/><circle class="cls-6" cx="99" cy="96.72" r="19.87"/><circle class="cls-6" cx="50.34" cy="51.91" r="19.87"/></g><g class="cls-7"><rect class="cls-3" x="-232.4" y="194.81" width="319.4" height="140.87" transform="translate(129.92 79.27) rotate(32.12)"/><rect class="cls-3" x="-207" y="161.34" width="319.4" height="140.87" transform="translate(116.01 60.63) rotate(32.12)"/><rect class="cls-3" x="-186.38" y="129.26" width="319.4" height="140.87" transform="translate(102.1 44.76) rotate(32.12)"/></g><g class="cls-8"><rect class="cls-3" x="-12.4" y="194.81" width="319.4" height="140.87" transform="translate(163.6 -37.72) rotate(32.12)"/><rect class="cls-3" x="13" y="161.34" width="319.4" height="140.87" transform="translate(149.69 -56.35) rotate(32.12)"/><rect class="cls-3" x="33.62" y="129.26" width="319.4" height="140.87" transform="translate(135.79 -72.23) rotate(32.12)"/></g></svg>