<svg id="Layer_1" data-name="Layer 1" xmlns="http://www.w3.org/2000/svg" xmlns:xlink="http://www.w3.org/1999/xlink" viewBox="0 0 200 200"><defs><style>.cls-1{fill:none;}.cls-2{clip-path:url(#clip-path);}.cls-3{fill:#e2b0be;}.cls-4{clip-path:url(#clip-path-2);}.cls-14,.cls-5{fill:#72366d;stroke:#373737;stroke-miterlimit:10;}.cls-5{stroke-width:1.55px;}.cls-6{fill:#eaeaea;}.cls-7{fill:#fff;}.cls-8{fill:#ce4c49;}.cls-9{fill:#daba64;}.cls-10{fill:#f9d474;}.cls-11{fill:#373737;}.cls-12{fill:#ee5750;}.cls-13{clip-path:url(#clip-path-3);}.cls-14{stroke-width:1.55px;}</style><clipPath id="clip-path"><circle class="cls-1" cx="100" cy="-120" r="100"/></clipPath><clipPath id="clip-path-2"><circle class="cls-1" cx="100" cy="100" r="100"/></clipPath><clipPath id="clip-path-3"><circle class="cls-1" cx="320" cy="100" r="100"/></clipPath></defs><g class="cls-2"><ellipse class="cls-3" cx="100.48" cy="-24.49" rx="103.35" ry="84.1"/></g><g class="cls-4"><rect class="cls-5" x="-32.57" width="272.39" height="221.65"/><circle class="cls-6" cx="103.29" cy="195.88" r="86.09"/><path class="cls-7" d="M148.9,112.67c-1.73-25-20.28-45.3-45.3-45.3s-44,20.32-45.3,45.3c-.39,7.42-6.19,12.07-6.19,18.61,0,20.93,23,37.91,51.49,37.91s51.49-17,51.49-37.91C155.09,124.74,149.32,118.67,148.9,112.67Z"/><path class="cls-8" d="M114.1,148.61s9.57,2.48,10,11.46.24,11.34-2.33,11.34-5-3-5.26-7.06,1.56-3.85-.44-6.42a7.37,7.37,0,0,0-4.64-2.82"/><path class="cls-8" d="M92.4,148.61s-9.58,2.48-10,11.46-.24,11.34,2.33,11.34,5-3,5.26-7.06-1.57-3.85.44-6.42a7.37,7.37,0,0,1,4.64-2.82"/><path class="cls-9" d="M111.16,160.06l5.68-14.52a4.71,4.71,0,0,0-4.39-6.44H94.27a4.72,4.72,0,0,0-4.4,6.44l5.69,14.52A8.38,8.38,0,0,0,111.16,160.06Z"/><path class="cls-10" d="M111.69,155.82l6.13-13.62a4.52,4.52,0,0,0-4.12-6.37H93.13A4.52,4.52,0,0,0,89,142.2l6.13,13.62A9.08,9.08,0,0,0,111.69,155.82Z"/><circle class="cls-11" cx="80.57" cy="125.99" r="5.15"/><circle class="cls-11" cx="128.28" cy="125.99" r="5.15"/><path class="cls-12" d="M139.12,57.17c-3.62-3.62-13.34.1-22.88,8.34a1.84,1.84,0,0,1-3-1.22c-1-12.35-5.2-21.64-10.26-21.64s-9.11,8.94-10.19,20.94a1.85,1.85,0,0,1-3,1.25c-9.28-7.77-18.58-11.19-22.1-7.67-4.09,4.09,1.19,16,11.79,26.6,8.37,8.37,17.54,13.4,23,13.14a4,4,0,0,0,.49,0,3.54,3.54,0,0,0,.73-.07c5.42.69,15-4.41,23.67-13.1C137.93,73.17,143.21,61.26,139.12,57.17Z"/></g><g class="cls-13"><rect class="cls-14" x="193.4" y="-30.52" width="273.31" height="273.31"/></g></svg>