<svg id="Layer_1" data-name="Layer 1" xmlns="http://www.w3.org/2000/svg" xmlns:xlink="http://www.w3.org/1999/xlink" viewBox="0 0 200 200"><defs><style>.cls-1{fill:none;}.cls-2{clip-path:url(#clip-path);}.cls-3,.cls-5{fill:#72366d;stroke:#373737;}.cls-14,.cls-3,.cls-5{stroke-miterlimit:10;}.cls-3{stroke-width:1.55px;}.cls-4{clip-path:url(#clip-path-2);}.cls-5{stroke-width:1.55px;}.cls-6{fill:#eaeaea;}.cls-7{fill:#403f4e;}.cls-8{fill:#b7a798;}.cls-9{fill:#f5f1ef;}.cls-10{fill:#d4ad50;}.cls-11{fill:#ecc277;}.cls-12{fill:#ebb9c7;}.cls-13{fill:#694642;}.cls-14,.cls-15{fill:#373737;}.cls-14{stroke:#fff;stroke-width:0.78px;}.cls-16{clip-path:url(#clip-path-3);}.cls-17{clip-path:url(#clip-path-4);}</style><clipPath id="clip-path"><circle class="cls-1" cx="-120" cy="100" r="100"/></clipPath><clipPath id="clip-path-2"><circle class="cls-1" cx="100" cy="100" r="100"/></clipPath><clipPath id="clip-path-3"><path class="cls-1" d="M123.89,140.35H79.73c-10.18,0-18-5.66-16.7-12l.76-9.27A150.71,150.71,0,0,1,70.7,84.69l4.19-12.88c1.11-5.28,8.25-9.23,16.69-9.23H112c8.45,0,15.59,4,16.7,9.23l4.19,12.88a150.7,150.7,0,0,1,6.9,34.36l.76,9.27C141.92,134.69,134.07,140.35,123.89,140.35Z"/></clipPath><clipPath id="clip-path-4"><circle class="cls-1" cx="100" cy="320" r="100"/></clipPath></defs><g class="cls-2"><circle class="cls-3" cx="-115.87" cy="88.11" r="129.37"/></g><g class="cls-4"><circle class="cls-5" cx="113.09" cy="89.28" r="124.42"/><ellipse class="cls-6" cx="103.1" cy="167.48" rx="78.51" ry="63.88"/><path class="cls-7" d="M130.3,89.2s8.83,1.71,18.24-4.85,13.1-8.83,13.1-8.83-15.95-6-22.79-5.13-13.33,1.28-13.33,1.28"/><path class="cls-7" d="M70,92.47s-8.83,1.71-18.24-4.84-13.1-8.84-13.1-8.84,16-6,22.79-5.13S74.8,75,74.8,75"/><path class="cls-8" d="M111.5,71.21c14.93-1.74,23.81-10.64,21.14-23.38-.33-1.55-2.84-3.73-1.45-4.65,6.64-4.43,9.57,11.89,10.88,18.11,1.83,8.69-1.84,15.56-9.17,19.51Z"/><path class="cls-8" d="M92.32,71.21C77.39,69.47,68.51,60.57,71.19,47.83c.33-1.55,2.84-3.73,1.45-4.65C66,38.75,63.06,55.07,61.76,61.29,59.93,70,63.6,76.85,70.93,80.8Z"/><path class="cls-9" d="M123.89,140.35H79.73c-10.18,0-18-5.66-16.7-12l.76-9.27A150.71,150.71,0,0,1,70.7,84.69l4.19-12.88c1.11-5.28,8.25-9.23,16.69-9.23H112c8.45,0,15.59,4,16.7,9.23l4.19,12.88a150.7,150.7,0,0,1,6.9,34.36l.76,9.27C141.92,134.69,134.07,140.35,123.89,140.35Z"/><circle class="cls-10" cx="100.48" cy="187.81" r="4.75"/><path class="cls-11" d="M110.51,188.68H91.4c-3.3,0-5.84-2.37-5.37-5l5-28.42c.38-2.16,2.67-3.77,5.37-3.77h9.07c2.7,0,5,1.61,5.37,3.77l5,28.42C116.35,186.31,113.81,188.68,110.51,188.68Z"/><path class="cls-7" d="M95.05,82.71a4.63,4.63,0,0,0-4.14,2.83,11.71,11.71,0,0,1-10,7.39c-8.72.62-13.08,5.28-8.72,9.49s10.14,7,8.86,11.48,10.25,5.77,10.58,1.87,9.72-10.76,11.42-8.64,10.71,1,3.73-4.71.68-7.41-3.73-10.9-8.81,2.61-8.64-2.33C94.59,85.33,97.41,82.7,95.05,82.71Z"/><path class="cls-12" d="M117.17,163c-3.65-1.7-8.39-3.1-16-3a39.38,39.38,0,0,0-15.59,3.64c-9.22,4-19.46-1.54-22.78-12.33l-1.51-4.89c-4.84-15.73,4.74-31.63,18.48-31.63h42.79c13.75,0,23.33,15.89,18.69,31l-1.66,5.39C136.36,161.83,126.18,167.17,117.17,163Z"/><path class="cls-13" d="M76.05,136.13a6.34,6.34,0,0,0,.86,3.44,6.54,6.54,0,0,0,6.58,3.2A6.46,6.46,0,0,0,88,139.83a2,2,0,0,0-1.15-3l-8.35-2.47A1.92,1.92,0,0,0,76.05,136.13Z"/><path class="cls-13" d="M128.68,135.06a6.38,6.38,0,0,1-.86,3.44,6.5,6.5,0,0,1-11.12.26,2,2,0,0,1,1.16-3l8.35-2.47A1.92,1.92,0,0,1,128.68,135.06Z"/><circle class="cls-14" cx="89.47" cy="101.46" r="4.99"/><circle class="cls-15" cx="116.47" cy="101.46" r="4.99"/><g class="cls-16"><path class="cls-7" d="M102,61.72c-1.56.59-4.26,3.72-5.92,3.89-5.51.58-3.7,5.73,2.46,9.34,3.55,2.07,7.09-4.2,9.07-2.89s-3.56,6.34-1.23,8.07c3.73,2.79,11.5.69,13.32,2.58,4,4.16,15.56,5.73,13.43,15s-6.35,13.56-.12,14.5l6.23.94s-5.83-34-8.78-36.12-11.83-2.28-12.36-6.76,1.28-11.82-7-9.63C109.87,61,102.81,61.4,102,61.72Z"/></g></g><g class="cls-17"><rect class="cls-5" x="-26.6" y="189.48" width="273.31" height="273.31"/></g></svg>