<svg id="Layer_1" data-name="Layer 1" xmlns="http://www.w3.org/2000/svg" xmlns:xlink="http://www.w3.org/1999/xlink" viewBox="0 0 200 200"><defs><style>.cls-1{fill:none;}.cls-2{clip-path:url(#clip-path);}.cls-3{fill:#eaeaea;}.cls-4{clip-path:url(#clip-path-2);}.cls-5,.cls-7{fill:#72366d;stroke:#373737;stroke-miterlimit:10;}.cls-5{stroke-width:1.55px;}.cls-6{clip-path:url(#clip-path-3);}.cls-7{stroke-width:1.55px;}.cls-8{fill:#856c5c;}.cls-9{fill:#e2b0be;}.cls-10{fill:#b2907b;}.cls-11{fill:#755f4d;}.cls-12{fill:#373737;}</style><clipPath id="clip-path"><circle class="cls-1" cx="100" cy="-120" r="100"/></clipPath><clipPath id="clip-path-2"><circle class="cls-1" cx="-120" cy="100" r="100"/></clipPath><clipPath id="clip-path-3"><circle class="cls-1" cx="100" cy="100" r="100"/></clipPath></defs><g class="cls-2"><ellipse class="cls-3" cx="103.1" cy="-52.52" rx="78.51" ry="63.88"/></g><g class="cls-4"><rect class="cls-5" x="-252.57" width="272.39" height="221.65"/></g><g class="cls-6"><rect class="cls-7" x="-26.6" y="-30.52" width="273.31" height="273.31"/><ellipse class="cls-8" cx="101.78" cy="210.18" rx="60.22" ry="90.64"/><circle class="cls-9" cx="101.15" cy="165.18" r="9.99"/><path class="cls-10" d="M118.24,161.16H83.34c-10.12,0-18.61-6.85-19.68-15.87L57,89c-1.23-10.48,7.93-19.6,19.68-19.6h48.21c11.76,0,20.92,9.12,19.68,19.6l-6.65,56.34C136.85,154.31,128.36,161.16,118.24,161.16Z"/><path class="cls-11" d="M73.73,70S52.82,72.28,47.3,82.63s.82,42.57.82,42.57,20.3-8.93,21.58-21.87c.61-6.18-3.59-12.54-1.7-22.77C69.55,72.22,73.73,70,73.73,70Z"/><path class="cls-11" d="M128.94,70s20.91,2.26,26.43,12.61-.82,42.57-.82,42.57-20.29-8.93-21.58-21.87c-.61-6.18,3.6-12.54,1.7-22.77C133.12,72.22,128.94,70,128.94,70Z"/><path class="cls-11" d="M121.18,133.11l-3.55-1.52a41.55,41.55,0,0,0-29.95-.82s-6.1,2.36-8.69,4.3c-3.72,2.78-15.7,10.45-14.87,20.93.75,9.45,7.23,17.1,15.23,18,7,.77,13.18-3.47,16.34-10a4.72,4.72,0,0,1,4.21-2.8h3.75a4.7,4.7,0,0,1,4.2,2.8c3,6.26,8.8,10.41,15.4,10.1,8.54-.4,15.64-8.53,16.21-18.61C140.06,145,122.56,133.7,121.18,133.11Z"/><path class="cls-12" d="M102.91,154.09l8.58-6.1a3.28,3.28,0,0,0-1.57-5.93l-6.22-.64a25.37,25.37,0,0,0-5.37,0l-6.23.64A3.28,3.28,0,0,0,90.54,148l8.57,6.1A3.27,3.27,0,0,0,102.91,154.09Z"/><path class="cls-11" d="M108,132.77H93.15c-1.08,0-1.93-.71-1.86-1.54l2.92-14.17a30,30,0,0,0,.6-6.94l-.46-15.79a1.45,1.45,0,0,1,1-1.18l1.94-.79a8.81,8.81,0,0,1,6.58,0l1.94.79a1.45,1.45,0,0,1,1,1.18l-.48,16.1a27.16,27.16,0,0,0,.54,6.22l3,14.58C109.92,132.06,109.07,132.77,108,132.77Z"/><path class="cls-10" d="M109.81,70s-4.7-14.48-23.61-9.56c0,0,14.78,2.61,13.66,8.71,0,0-7.83-10.8-16.72-4.78,0,0,9.29.27,8.6,5.63,0,0-3.68-6.28-9.34-2.8,0,0,5.07.86,4.83,2.44"/><circle class="cls-12" cx="77.29" cy="124.93" r="6.58"/><circle class="cls-12" cx="124.68" cy="124.93" r="6.58"/></g></svg>