<svg id="Layer_1" data-name="Layer 1" xmlns="http://www.w3.org/2000/svg" xmlns:xlink="http://www.w3.org/1999/xlink" viewBox="0 0 200 200"><defs><style>.cls-1{fill:none;}.cls-2{clip-path:url(#clip-path);}.cls-10,.cls-3{fill:#72366d;stroke:#373737;stroke-miterlimit:10;}.cls-3{stroke-width:1.55px;}.cls-4{fill:#ebb9c7;}.cls-5{fill:#e2b0be;}.cls-6{fill:#f3dee0;}.cls-7{fill:#ebbac7;}.cls-8{fill:#373737;}.cls-9{clip-path:url(#clip-path-2);}.cls-10{stroke-width:1.55px;}</style><clipPath id="clip-path"><circle class="cls-1" cx="100" cy="100" r="100"/></clipPath><clipPath id="clip-path-2"><circle class="cls-1" cx="320" cy="320" r="100"/></clipPath></defs><g class="cls-2"><circle class="cls-3" cx="104.13" cy="88.11" r="129.37"/><path class="cls-4" d="M127.2,74.15s12.89-14.52,36.57-7.07c0,0,8.43,22.61-11.06,37"/><path class="cls-4" d="M45.37,100.59S30.84,87.69,38.3,64c0,0,22.61-8.43,37,11.06"/><ellipse class="cls-5" cx="100.48" cy="195.51" rx="103.35" ry="84.1"/><circle class="cls-4" cx="100.07" cy="124.54" r="59.59"/><ellipse class="cls-6" cx="100.07" cy="151.3" rx="23.43" ry="17.01"/><circle class="cls-7" cx="107.94" cy="152.85" r="3.65"/><circle class="cls-7" cx="93.46" cy="152.85" r="3.65"/><circle class="cls-8" cx="71.9" cy="124.54" r="6.57"/><circle class="cls-8" cx="130.07" cy="124.54" r="6.57"/><path class="cls-5" d="M64.41,79.56S45.66,65.72,36.69,70.27c0,0-4.92,15.33,8.68,30.32"/><path class="cls-5" d="M136.73,81.51s18.76-13.84,27.72-9.29c0,0,4.92,15.33-8.68,30.31"/></g><g class="cls-9"><rect class="cls-10" x="193.4" y="189.48" width="273.31" height="273.31"/></g></svg>