<svg width="1366" height="362" viewBox="0 0 1366 362" fill="none" xmlns="http://www.w3.org/2000/svg">
<g clip-path="url(#clip0)">
<rect width="1440" height="360.176" fill="#E9C28F"/>
<g clip-path="url(#clip1)">
<path opacity="0.25" d="M330 91.0207C330 172.713 592.076 239 915.27 239C1096.52 239 1258.57 218.153 1365.9 185.433V0H376.313C326.699 34.2741 330 56.6759 330 91.0207Z" fill="#FADDAB"/>
<path opacity="0.25" d="M546.363 20.9178C546.363 102.61 808.439 168.897 1131.63 168.897C1214.96 168.897 1294.28 164.516 1366 156.53V0H552.164C548.263 6.85482 546.363 13.851 546.363 20.9178Z" fill="#EBDCCD"/>
</g>
<path d="M1260.34 232.006C1223.46 225.655 1194.83 210.725 1157.34 205.701C1121.28 200.866 1084.09 209.398 1050.98 218.924C1017.97 228.451 984.866 236.035 947.885 236.698C907.542 237.456 869.951 214.185 830.627 209.161C783.255 203.094 730.178 220.583 683.112 231.437C657.541 237.314 602.325 245.087 564.733 238.594C527.854 232.243 499.227 217.313 461.737 212.289C425.674 207.455 388.489 215.986 355.38 225.513C322.271 235.039 289.263 242.623 252.282 243.286C211.94 244.045 174.348 220.773 135.024 215.749C87.3469 209.682 29.9912 225.133 -13 238.12L-12.4906 365L683.112 364.763H1378.61V224.659C1341.22 231.532 1297.93 238.499 1260.34 232.006Z" fill="#3483D8"/>
</g>
<defs>
<clipPath id="clip0">
<rect width="1366" height="362" fill="white"/>
</clipPath>
<clipPath id="clip1">
<rect width="1036" height="239" fill="white" transform="translate(330)"/>
</clipPath>
</defs>
</svg>
