<?xml version="1.0" encoding="utf-8"?>
<!-- Generator: Adobe Illustrator 25.2.0, SVG Export Plug-In . SVG Version: 6.00 Build 0)  -->
<svg version="1.1" id="Layer_1" xmlns="http://www.w3.org/2000/svg" xmlns:xlink="http://www.w3.org/1999/xlink" x="0px" y="0px"
	 viewBox="0 0 1366 362" style="enable-background:new 0 0 1366 362;" xml:space="preserve">
<style type="text/css">
	.st0{opacity:0.6;fill:url(#SVGID_1_);enable-background:new    ;}
	.st1{opacity:0.6;fill:#46A6BE;enable-background:new    ;}
</style>
<linearGradient id="SVGID_1_" gradientUnits="userSpaceOnUse" x1="688.2574" y1="-145.9991" x2="676.9769" y2="538.8941">
	<stop  offset="0.4307" style="stop-color:#46A6BE;stop-opacity:0.6"/>
	<stop  offset="0.6995" style="stop-color:#FFFFFF;stop-opacity:0"/>
	<stop  offset="0.8352" style="stop-color:#000000"/>
</linearGradient>
<path class="st0" d="M-35.8,31.9c19.9-5.6,39.7-7.3,58.1-2.2c40.6,11.2,79.3,63,120.9,61.4c38.2-1.5,72.3-18.4,106.4-39.6
	c34.1-21.2,72.4-40.1,109.6-29.4c38.7,11.1,68.2,44.4,106.2,58.5c38.8,14.4,95.7-2.9,122-15.9C636,40.5,690.7,1.5,739.6,15
	c40.6,11.2,79.3,63,120.9,61.4c38.2-1.5,72.3-18.4,106.4-39.6c34.1-21.2,72.4-40.1,109.6-29.4c38.7,11.1,68.2,44.4,106.2,58.5
	c38.8,14.4,83.4-1,122-16.3v0C1334.6,30.1,1371.3,8.1,1407,0l-8.1,357.6l-94.3,3.9H587.6L-36,362"/>
<rect x="-292" y="-286.4" class="st1" width="170.8" height="190.2"/>
</svg>
