<?xml version="1.0" encoding="utf-8"?>
<!-- Generator: Adobe Illustrator 25.2.0, SVG Export Plug-In . SVG Version: 6.00 Build 0)  -->
<svg version="1.1" id="Layer_1" xmlns="http://www.w3.org/2000/svg" xmlns:xlink="http://www.w3.org/1999/xlink" x="0px" y="0px"
	 viewBox="0 0 1366 339" style="enable-background:new 0 0 1366 339;" xml:space="preserve">
<style type="text/css">
	.st0{fill:url(#SVGID_1_);}
	.st1{opacity:0.66;fill:#2E7392;enable-background:new    ;}
</style>
<linearGradient id="SVGID_1_" gradientUnits="userSpaceOnUse" x1="716.0278" y1="-334.5276" x2="693.134" y2="1110.291">
	<stop  offset="0.2976" style="stop-color:#3586DC"/>
	<stop  offset="0.4123" style="stop-color:#317BB3;stop-opacity:0.8209"/>
	<stop  offset="0.5153" style="stop-color:#2E7392;stop-opacity:0.66"/>
</linearGradient>
<path class="st0" d="M1307.2,58.4c-38.3-13.4-68-44.9-107-55.5c-37.5-10.2-76.1,7.8-110.4,27.9c-34.3,20.1-68.6,36.1-107.1,37.5
	c-41.9,1.6-80.9-47.5-121.8-58.2c-49.2-12.8-104.3,24.1-153.2,47C681.3,69.5,623.9,86,584.9,72.3c-38.3-13.4-68-44.9-107-55.5
	c-37.5-10.2-76.1,7.8-110.4,27.9c-34.3,20.1-68.6,36.1-107.1,37.5c-41.9,1.6-80.9-47.5-121.8-58.2C89.2,11.3,29.7,43.9-15,71.3
	l0.5,267.7l722.3-0.5H1430l0-295.6C1391.2,57.4,1346.2,72.1,1307.2,58.4z"/>
<rect x="-533" y="-429.3" class="st1" width="178" height="229.9"/>
<g id="Hby5xN.tif">
	
		<image style="overflow:visible;" width="372" height="116" id="Layer_0" xlink:href="F9AB35BB3172A72D.png"  transform="matrix(0.5 0 0 0.5 513.9422 -215.5887)">
	</image>
</g>
</svg>
