<?xml version="1.0" encoding="utf-8"?>
<!-- Generator: Adobe Illustrator 25.2.0, SVG Export Plug-In . SVG Version: 6.00 Build 0)  -->
<svg version="1.1" id="Layer_1" xmlns="http://www.w3.org/2000/svg" xmlns:xlink="http://www.w3.org/1999/xlink" x="0px" y="0px"
	 viewBox="0 0 1366 384" style="enable-background:new 0 0 1366 384;" xml:space="preserve">
<style type="text/css">
	.st0{fill:url(#SVGID_1_);}
	.st1{fill:#BED5DA;}
</style>
<linearGradient id="SVGID_1_" gradientUnits="userSpaceOnUse" x1="696.206" y1="41.918" x2="662.2866" y2="1487.5201">
	<stop  offset="8.034485e-02" style="stop-color:#BED5DA"/>
	<stop  offset="0.116" style="stop-color:#C3D8DD;stop-opacity:0.7717"/>
	<stop  offset="0.1583" style="stop-color:#D1E2E5;stop-opacity:0.5008"/>
	<stop  offset="0.2037" style="stop-color:#E9F1F3;stop-opacity:0.2097"/>
	<stop  offset="0.2365" style="stop-color:#FFFFFF;stop-opacity:0"/>
</linearGradient>
<path class="st0" d="M1415,55.1c-30.8-21-63-40.5-97.7-49.7c-34.7-9.2-72.5-7.5-103.9,12.3c-16.6,10.4-31,25.6-48.2,34.3
	c-37,18.7-79.6,4.8-117.2-12.2c-37.6-17-76.6-37.5-116.4-31.1c-22.6,3.6-43.6,15.6-64.7,26c-29.7,14.5-60.5,26-91.8,34.1
	c-28.7,7.4-62.2,10.7-84.1-12.6l2.1,1c-30.8-21-63-40.5-97.7-49.7C560.7-1.7,522.9,0,491.5,19.8c-16.6,10.4-31,25.6-48.2,34.3
	C406.2,72.9,363.6,59,326,42c-37.6-17-76.6-37.5-116.4-31.1c-22.6,3.6-43.6,15.6-64.7,26c-29.7,14.5-60.5,26-91.8,34.1
	C24.4,78.4-9.2,81.7-31,58.3V384h1446V55.1z"/>
<rect x="-557.7" y="-190.6" class="st1" width="397.1" height="317.2"/>
</svg>
