<svg width="370" height="265" viewBox="0 0 370 265" fill="none" xmlns="http://www.w3.org/2000/svg">
<path d="M249.93 20.19L261.5 19.18C264.6 18.91 266.9 16.17 266.62 13.07L266.43 10.94C266.16 7.84001 263.42 5.54002 260.32 5.82002L247 6.99C236.16 7.94 228.14 17.5 229.09 28.34L226.06 52.87C226.33 55.97 229.07 58.27 232.17 57.99L234.26 57.81C237.36 57.54 239.66 54.8 239.38 51.7L242.56 28.95C242.19 24.5 245.48 20.58 249.93 20.19Z" fill="#E17A78"/>
<path d="M190.54 119.63C190.54 119.63 205.63 60.1 216.99 55.18C228.96 49.99 261.18 51.31 261.18 51.31L272.25 109.25" fill="#BB4567"/>
<path d="M263.02 60.46C263.02 60.46 240.63 61.54 233.38 63.23C227.74 64.54 223.3 67.25 221.51 72.29L219.23 78.71C215.94 87.96 223.36 95.07 233.45 96.54L270.64 99.15L263.02 60.46Z" fill="#E17A78"/>
<path d="M68.75 166.34C68.75 166.34 54.81 142.4 50.65 142.25C45.27 142.05 36.6 141.41 33.27 144.81C29.16 149.01 48.68 190.74 48.68 190.74" fill="#BB4567"/>
<path d="M74.5 235.38C74.5 235.38 64.94 261.38 60.87 262.25C55.61 263.38 47.18 265.52 43.31 262.75C38.53 259.33 50.49 214.84 50.49 214.84" fill="#BB4567"/>
<path d="M369.47 172.82C369.47 172.81 369.47 172.8 369.47 172.78C366.13 135.09 339.59 117.99 269.46 107.58C179.22 94.19 35.67 164.01 38.79 201.77C38.79 201.78 38.79 201.79 38.79 201.81C38.79 201.82 38.79 201.83 38.79 201.85C42.29 239.58 195.8 283.36 282.33 254.47C349.58 232.02 372.74 210.56 369.47 172.86C369.47 172.84 369.47 172.83 369.47 172.82Z" fill="#E17A78"/>
<path d="M222.37 213.55C238.464 213.55 251.51 200.504 251.51 184.41C251.51 168.316 238.464 155.27 222.37 155.27C206.276 155.27 193.23 168.316 193.23 184.41C193.23 200.504 206.276 213.55 222.37 213.55Z" fill="#BB4567"/>
<path d="M222.7 206.54C234.795 206.54 244.6 196.735 244.6 184.64C244.6 172.545 234.795 162.74 222.7 162.74C210.605 162.74 200.8 172.545 200.8 184.64C200.8 196.735 210.605 206.54 222.7 206.54Z" fill="#517E93"/>
<path d="M132.31 215.77C144.902 215.77 155.11 205.562 155.11 192.97C155.11 180.378 144.902 170.17 132.31 170.17C119.718 170.17 109.51 180.378 109.51 192.97C109.51 205.562 119.718 215.77 132.31 215.77Z" fill="#BB4567"/>
<path d="M132.33 210.16C141.658 210.16 149.22 202.598 149.22 193.27C149.22 183.942 141.658 176.38 132.33 176.38C123.002 176.38 115.44 183.942 115.44 193.27C115.44 202.598 123.002 210.16 132.33 210.16Z" fill="#517E93"/>
<path d="M369.69 172.85C366.96 141.98 348.65 124.92 303.58 114.04C286.28 133.33 276.98 156.6 279.11 180.83C281.24 205.06 294.44 226.35 314.83 242.34C357.31 223.78 372.38 203.8 369.69 172.93C369.69 172.92 369.69 172.91 369.69 172.89C369.7 172.88 369.7 172.86 369.69 172.85Z" fill="#BB4567"/>
<path d="M43.4799 217.51C34.8499 218.27 27.2399 211.89 26.4899 203.26C25.7299 194.63 32.1099 187.02 40.7399 186.27C49.3699 185.51 52.1099 216.75 43.4799 217.51Z" fill="#BB4567"/>
<path d="M7.86999 177.49L6.58999 182.16C6.54999 182.29 6.53999 182.43 6.54999 182.57L8.09999 200.2C8.15999 200.85 8.72999 201.32 9.36999 201.27L12.69 200.98C13.34 200.92 13.81 200.35 13.76 199.71L12.21 182.07C12.2 181.93 12.16 181.8 12.1 181.68L10.06 177.3C9.59999 176.31 8.15999 176.43 7.86999 177.49Z" fill="#E17A78"/>
<path d="M15.29 231.39L16.57 226.72C16.61 226.59 16.62 226.45 16.61 226.31L15.06 208.68C15 208.03 14.43 207.56 13.79 207.61L10.47 207.9C9.82001 207.96 9.35001 208.53 9.40001 209.17L10.95 226.81C10.96 226.95 11 227.08 11.06 227.2L13.1 231.58C13.55 232.57 15 232.45 15.29 231.39Z" fill="#E17A78"/>
<path d="M3.52995 201.26V201.27C1.52995 201.58 0.0899476 203.38 0.269948 205.43C0.449948 207.47 2.17995 209 4.19995 208.96V208.97L27.8399 206.9L27.16 199.19L3.52995 201.26Z" fill="#E17A78"/>
<path d="M263.85 64.04C263.85 64.04 245.1 64.98 238.84 66.37C234 67.44 230.14 69.61 228.57 73.59L226.57 78.67C223.68 85.99 230.02 91.55 238.7 92.64L269.74 94.55L263.85 64.04Z" fill="#517E93"/>
<path d="M265.08 21.97C262.67 22.18 260.54 20.4 260.33 17.99L259.29 6.17002C259.08 3.76002 260.86 1.63002 263.27 1.42002C265.68 1.21002 267.81 2.99 268.02 5.4L269.06 17.22C269.28 19.63 267.49 21.75 265.08 21.97Z" fill="#BB4567"/>
<path d="M218.26 206.33L243.28 176.5C242.57 174.79 241.65 173.21 240.55 171.76L213.12 204.46C214.73 205.29 216.46 205.92 218.26 206.33Z" fill="#5EA4BB"/>
<path d="M221.16 163.14C220.81 163.17 220.46 163.21 220.12 163.26L201.19 185.83C201.2 186.18 201.22 186.53 201.26 186.88C201.61 190.85 203 194.47 205.13 197.51L232.31 165.11C228.93 163.53 225.12 162.79 221.16 163.14Z" fill="#5EA4BB"/>
<path d="M128.66 209.36L147.74 186.61C147.2 185.31 146.49 184.1 145.66 183L124.74 207.94C125.97 208.57 127.29 209.05 128.66 209.36Z" fill="#5EA4BB"/>
<path d="M130.87 176.42C130.6 176.44 130.34 176.47 130.08 176.51L115.64 193.72C115.65 193.99 115.67 194.25 115.69 194.52C115.96 197.54 117.01 200.31 118.64 202.63L139.37 177.92C136.8 176.71 133.9 176.15 130.87 176.42Z" fill="#5EA4BB"/>
<path d="M264.46 64.27C264.46 64.27 259.32 64.53 253.52 64.97L232.03 90.59C234.08 91.73 236.58 92.52 239.3 92.86L241.44 92.99L264.66 65.31L264.46 64.27Z" fill="#5EA4BB"/>
<path opacity="0.11" d="M363.74 152.35C356.78 136.64 342.38 125.8 317.66 117.84C317.66 117.84 317.66 117.84 317.65 117.84C317.05 117.65 316.45 117.46 315.85 117.27C315.49 117.16 315.13 117.05 314.76 116.94C314.58 116.88 314.39 116.83 314.21 116.77C302.19 113.15 287.86 110.14 270.93 107.55L269.24 98.7L269.57 98.72L268.11 91.34L263.12 65.44L263.58 64.9L263.38 63.86C263.38 63.86 263.18 63.87 262.82 63.89L262.77 63.62C262.77 63.62 262.72 63.62 262.65 63.63L261.94 60.05C261.94 60.05 261.91 60.05 261.85 60.05L260.1 50.89C260.1 50.89 249.59 50.46 238.35 51.06L241.5 28.54C241.11 24.09 244.4 20.17 248.85 19.78L259.55 18.84C260.26 20.58 262.03 21.73 264 21.56C266.41 21.35 268.2 19.22 267.98 16.81L266.94 4.99C266.73 2.58 264.6 0.790024 262.19 1.01002C259.86 1.21002 258.13 3.20001 258.2 5.50001L245.93 6.58C235.09 7.53 227.07 17.09 228.02 27.93L225 52.39C221.45 52.97 218.28 53.74 215.91 54.77C207.12 58.58 196.1 95.08 191.56 111.4C143.88 121.35 95.82 142.46 66.39 163.77C62.85 157.88 52.96 141.96 49.58 141.84C44.2 141.64 35.53 141 32.2 144.4C30.28 146.36 33.51 156.51 37.51 166.77C41.46 169.62 45.48 172.38 49.58 175.03C59.92 181.7 71.29 187.89 83.6 188.05C103.47 188.3 120.22 173.05 139.72 169.19C170.29 163.15 199.98 185.87 231.11 184.34C265.82 182.63 295.12 151.22 329.76 154.13C337.45 154.77 345.05 157.14 352.74 156.49C356.61 156.14 360.63 154.69 363.74 152.35Z" fill="#FADDAB"/>
</svg>
