<svg width="1366" height="362" viewBox="0 0 1366 362" fill="none" xmlns="http://www.w3.org/2000/svg">
<path opacity="0.6" d="M-35.8203 31.9273C-15.9037 26.3278 3.90714 24.6579 22.2803 29.7375C62.9169 40.9766 101.598 92.7523 143.228 91.1024C181.423 89.5926 215.515 72.734 249.587 51.4957C283.659 30.2575 322.012 11.359 359.213 22.0782C397.904 33.2272 427.409 66.4445 465.435 80.6033C504.211 95.0321 561.18 77.6936 587.418 64.6546C635.973 40.5166 690.701 1.52986 739.562 15.0487C780.199 26.2878 818.88 78.0635 860.51 76.4137C898.705 74.9038 932.797 58.0452 966.869 36.8069C1000.94 15.5687 1039.29 -3.32974 1076.49 7.38937C1115.19 18.5384 1144.69 51.7557 1182.72 65.9146C1221.49 80.3434 1266.16 64.9246 1304.7 49.5859V49.6059C1334.63 30.0775 1371.28 8.06933 1407 0L1398.94 357.61L1304.66 361.54H587.566L-36 362" fill="#46A6BE"/>
</svg>
