<svg width="1366" height="339" viewBox="0 0 1366 339" fill="none" xmlns="http://www.w3.org/2000/svg">
<path opacity="0.66" d="M1307.16 58.3855C1268.86 44.9653 1239.16 13.5047 1200.2 2.93456C1162.73 -7.2256 1124.11 10.6847 1089.8 30.805C1055.5 50.9253 1021.16 66.8956 982.695 68.3256C940.773 69.8856 901.813 20.8348 860.896 10.1747C811.697 -2.63554 756.583 34.3051 707.69 57.1854C681.276 69.5456 623.899 85.9759 584.855 72.3057C546.551 58.8855 516.847 27.4249 477.887 16.8548C440.418 6.69461 401.797 24.6049 367.491 44.7253C333.186 64.8456 298.848 80.8158 260.386 82.2458C218.464 83.8059 179.504 34.7551 138.587 24.0949C89.2495 11.2547 29.6511 43.9152 -15 71.3457L-14.4711 339L707.839 338.5H1429.96L1430 42.9152C1391.19 57.4455 1346.21 72.0557 1307.16 58.3855Z" fill="#2E7392"/>
</svg>
