<svg width="1366" height="384" viewBox="0 0 1366 384" fill="none" xmlns="http://www.w3.org/2000/svg">
<path d="M1415 55.1233C1384.15 34.1035 1352.02 14.6437 1317.33 5.3938C1282.64 -3.85611 1244.81 -2.10613 1213.4 17.6937C1196.83 28.1436 1182.44 43.2834 1165.18 52.0133C1128.16 70.7431 1085.57 56.8633 1047.97 39.8434C1010.37 22.8236 971.41 2.37383 931.533 8.73376C908.906 12.3437 887.962 24.3836 866.849 34.7335C837.163 49.2834 806.398 60.7132 775.03 68.8532C746.318 76.3031 712.791 79.583 690.947 56.2233L693.053 57.2433C662.203 36.2235 630.073 16.7637 595.382 7.51378C560.69 -1.73613 522.866 0.0138396 491.456 19.8136C474.883 30.2635 460.49 45.4034 443.228 54.1333C406.209 72.8631 363.622 58.9832 326.021 41.9634C288.419 24.9336 249.463 4.4938 209.586 10.8537C186.959 14.4637 166.015 26.5036 144.902 36.8535C115.216 51.4033 84.451 62.8332 53.0827 70.9731C24.3708 78.4231 -9.15649 81.703 -31 58.3433V384H1415V55.1233Z" fill="#BED5DA"/>
</svg>
